<?xml version="1.0" encoding="UTF-8"?>
<svg version="1.1" xmlns="http://www.w3.org/2000/svg" width="2084" height="2084">
<path d="M0 0 C31.12945132 25.60969238 51.44845532 59.32940758 62 98.1875 C62 98.8475 62 99.5075 62 100.1875 C62.50523193 99.90140869 63.01046387 99.61531738 63.53100586 99.32055664 C102.93566559 77.25482823 149.70529417 66.42655026 194.13500977 78.77978516 C207.85907001 82.88471202 220.93884365 89.02503033 232 98.1875 C232.84949219 98.88617187 233.69898438 99.58484375 234.57421875 100.3046875 C252.56715241 115.79018324 264.60085163 137.39341454 267 161.1875 C269.70370169 200.47700636 254.90871557 234.92299143 229.45727539 264.21289062 C198.94936991 298.73358278 153.36555331 323.74945467 107 327.1875 C72.81931273 328.77783542 38.72024463 324.52603809 12 301.1875 C10.99259766 300.39472656 10.99259766 300.39472656 9.96484375 299.5859375 C-0.16023463 291.41340903 -7.63127932 279.93824295 -13 268.1875 C-13 267.5275 -13 266.8675 -13 266.1875 C-14.05445313 266.50976562 -15.10890625 266.83203125 -16.1953125 267.1640625 C-42.87557742 273.78433026 -71.30727262 264.62681205 -94.26269531 251.24951172 C-99.13601613 248.2704581 -103.58040982 244.79265539 -108 241.1875 C-108.56074219 240.73358887 -109.12148438 240.27967773 -109.69921875 239.81201172 C-148.14218076 208.50815386 -170.6280332 161.43808939 -175.6875 112.4375 C-178.23707085 73.71589269 -170.8678688 33.65105402 -144.67285156 3.66845703 C-105.28330809 -40.15484239 -43.32624546 -33.76696273 0 0 Z M-88 1.1875 C-88.12641708 4.19909959 -88.18876227 7.18636428 -88.203125 10.19921875 C-88.20882507 11.1190303 -88.21452515 12.03884186 -88.22039795 12.98652649 C-88.22987405 14.94616541 -88.23639222 16.90582045 -88.24023438 18.86547852 C-88.24981349 21.8175208 -88.28075674 24.76882832 -88.3125 27.72070312 C-88.45940246 53.70688073 -80.94851234 76.86953948 -63 96.1875 C-57.78839062 101.45405105 -52.41689984 106.04486845 -46.1875 110.0625 C-25.89353671 123.16133085 -12.12621911 141.50547789 -2 163.1875 C0.59089222 160.03132221 2.98760676 156.79768787 5.296875 153.43066406 C10.87611821 145.34710146 17.15288795 138.21169254 24 131.1875 C24.71349609 130.45128418 24.71349609 130.45128418 25.44140625 129.70019531 C29.4529712 125.57409404 33.36186921 121.60296124 38 118.1875 C36.8486104 109.97364978 35.04487628 102.28666561 32.375 94.4375 C32.02381104 93.3969043 31.67262207 92.35630859 31.31079102 91.28417969 C28.25616628 82.47891256 24.52493276 74.32138723 20 66.1875 C19.42507813 65.1253125 18.85015625 64.063125 18.2578125 62.96875 C11.90110628 51.60284211 3.9092529 41.64451891 -5 32.1875 C-5.89912109 31.19169922 -5.89912109 31.19169922 -6.81640625 30.17578125 C-23.12854241 12.80670322 -47.24361312 0.18319384 -71.17578125 -0.96484375 C-80.09072021 -1.58269904 -80.09072021 -1.58269904 -88 1.1875 Z M-123 20.1875 C-143.96970664 43.98267036 -150.73579455 75.07672081 -149 106.1875 C-145.71545626 145.77489557 -129.21355343 183.13228289 -101 211.1875 C-100.19175781 211.99574219 -99.38351562 212.80398438 -98.55078125 213.63671875 C-77.67556631 233.40779009 -53.57893626 242.08052805 -25.10620117 241.36450195 C-22.80899859 241.25476126 -22.80899859 241.25476126 -20 240.1875 C-19.89950284 234.53569455 -19.82778142 228.88443328 -19.78027344 223.23193359 C-19.76042437 221.3177787 -19.73333598 219.40368218 -19.69824219 217.48974609 C-19.20488917 189.84746689 -25.98729209 165.56508205 -45.17236328 144.96337891 C-51.38237118 138.54247231 -58.42114165 133.32820988 -65.7734375 128.28515625 C-91.62872752 110.35326156 -107.31198668 83.41881609 -113.08984375 52.73046875 C-114.32934122 44.99958244 -114.45652817 37.2468715 -114.625 29.4375 C-114.66329461 27.95050086 -114.70235242 26.46352117 -114.7421875 24.9765625 C-114.83689905 21.38038911 -114.92136909 17.78406524 -115 14.1875 C-117.84851933 14.1875 -121.06486347 18.26989188 -123 20.1875 Z M58 136.1875 C57.44070801 136.63996094 56.88141602 137.09242188 56.30517578 137.55859375 C28.44418197 160.24704995 9.4898234 189.72344 5.71484375 225.921875 C5.33911832 235.65806448 7.86886087 246.03792069 11 255.1875 C45.78519525 249.93849674 76.61920533 244.35026649 99.73046875 215.33984375 C105.44844059 207.39766944 109.75291238 198.75058404 114.0625 190 C128.22354288 161.32703924 151.33761047 140.66432117 181.57983398 130.13134766 C190.03289822 127.35199303 198.67420569 125.86784575 207.45898438 124.53051758 C208.40837891 124.38251709 209.35777344 124.2345166 210.3359375 124.08203125 C211.18720215 123.95675049 212.0384668 123.83146973 212.91552734 123.70239258 C215.20460839 123.32749546 215.20460839 123.32749546 217 121.1875 C170.71216778 84.13798773 100.66592705 101.47623731 58 136.1875 Z M158 174.1875 C157.25363281 174.83976562 156.50726562 175.49203125 155.73828125 176.1640625 C145.04471482 186.12979456 138.70265555 198.44722097 132.68212891 211.54321289 C127.21943684 223.26903464 119.94736824 232.83200619 111 242.1875 C110.32710937 242.93515625 109.65421875 243.6828125 108.9609375 244.453125 C87.92798887 266.98280031 58.13416071 274.00164607 29 279.1875 C36.71441009 287.41525346 46.58249663 292.0087843 57.125 295.5625 C57.82778076 295.800896 58.53056152 296.03929199 59.25463867 296.28491211 C69.91505734 299.67124907 80.55025496 300.55375118 91.6875 300.5 C92.91919922 300.49436035 94.15089844 300.4887207 95.41992188 300.48291016 C104.92269954 300.35682233 113.80768571 299.58296846 123 297.1875 C123.77714355 296.98882324 124.55428711 296.79014648 125.35498047 296.58544922 C153.88779263 289.10042186 179.3455072 275.15602417 200.52441406 254.61181641 C201.88264288 253.30077953 203.26452452 252.01436442 204.6484375 250.73046875 C221.27707717 234.91490136 231.72831129 215.06164911 238 193.1875 C238.26683594 192.31222656 238.53367187 191.43695312 238.80859375 190.53515625 C242.3006928 176.83167791 240.78149597 161.34141461 236 148.1875 C234.92062969 146.8830384 234.92062969 146.8830384 232.33105469 147.06982422 C205.40763812 148.02094462 178.29110405 156.14328141 158 174.1875 Z " fill="#AD4B4B" transform="translate(996,634.8125)"/>
<path d="M0 0 C92.13445412 -1.92080168 179.82658844 30.91509955 250.35742188 93.06640625 C252.21318643 94.84807494 254.01978032 96.65780135 255.80273438 98.51171875 C257.49286229 100.20184667 259.27686836 101.71741756 261.10742188 103.25390625 C266.09949684 107.57526097 270.47335785 112.44756962 274.85253906 117.37451172 C275.86234099 118.50980169 276.87607436 119.64160603 277.89355469 120.77001953 C297.01914248 142.00145027 313.04872307 165.8051222 326.35742188 191.06640625 C326.7007959 191.71464355 327.04416992 192.36288086 327.39794922 193.03076172 C329.83023068 197.6571909 332.1308355 202.33774761 334.35742188 207.06640625 C334.92928223 208.28046143 334.92928223 208.28046143 335.51269531 209.51904297 C346.26208083 232.63325348 360.35742188 263.24346494 360.35742188 289.06640625 C356.25419948 289.90443538 352.14969825 290.73602503 348.04492188 291.56640625 C346.87767578 291.80488281 345.71042969 292.04335938 344.5078125 292.2890625 C343.38955078 292.51464844 342.27128906 292.74023438 341.11914062 292.97265625 C340.08748779 293.18212891 339.05583496 293.39160156 337.99291992 293.60742188 C335.35742188 294.06640625 335.35742188 294.06640625 332.35742188 294.06640625 C332.14988281 293.26203125 331.94234375 292.45765625 331.72851562 291.62890625 C330.62932309 287.43449792 329.50113514 283.24887266 328.35742188 279.06640625 C328.11604492 278.18227051 327.87466797 277.29813477 327.62597656 276.38720703 C317.68418295 240.31537851 303.09684561 204.74501387 281.35742188 174.06640625 C280.55761574 172.91689409 279.75815388 171.76714235 278.95898438 170.6171875 C273.73878975 163.15687445 268.23191506 156.02840891 262.35742188 149.06640625 C261.54660156 148.06996094 260.73578125 147.07351563 259.90039062 146.046875 C253.45035761 138.21037521 246.44933844 130.94487194 239.29492188 123.75390625 C238.38524658 122.83504639 237.47557129 121.91618652 236.53833008 120.96948242 C230.4511883 114.90969858 224.09183154 109.39236151 217.35742188 104.06640625 C216.60549561 103.46046631 215.85356934 102.85452637 215.07885742 102.23022461 C147.21017798 47.61405511 59.40026469 22.64753774 -27.10620117 31.58813477 C-88.70513986 38.69434933 -148.54799962 62.62098901 -196.64257812 102.06640625 C-197.16819336 102.49727539 -197.69380859 102.92814453 -198.23535156 103.37207031 C-213.32867228 115.8023895 -228.26343094 128.96261508 -240.44726562 144.3125 C-242.70182326 147.14072621 -245.04133922 149.88075402 -247.39257812 152.62890625 C-259.42592578 167.11728001 -269.44094089 182.65409516 -278.64257812 199.06640625 C-279.1246875 199.92073242 -279.60679687 200.77505859 -280.10351562 201.65527344 C-296.11223954 230.27860646 -307.47641681 261.85575939 -313.64257812 294.06640625 C-320.26871591 293.42603688 -326.68970521 292.35669461 -333.20507812 291.00390625 C-334.11837891 290.81763672 -335.03167969 290.63136719 -335.97265625 290.43945312 C-338.19671857 289.98532522 -340.41997088 289.52759325 -342.64257812 289.06640625 C-333.3960706 227.71310927 -301.79381272 168.03183081 -260.64257812 122.06640625 C-259.79824219 121.11121094 -258.95390625 120.15601563 -258.08398438 119.171875 C-247.26108987 107.12996346 -235.97526093 95.03149208 -223.18945312 85.0546875 C-220.38998317 82.86921172 -217.71269441 80.56660739 -215.01757812 78.25390625 C-155.42290317 28.63002633 -77.03723748 1.9358951 0 0 Z " fill="#AD4B4B" transform="translate(1032.642578125,425.93359375)"/>
<path d="M0 0 C1.06738281 1.63208008 1.06738281 1.63208008 1.703125 3.76953125 C1.95594238 4.56512451 2.20875977 5.36071777 2.46923828 6.18041992 C2.85571533 7.48329956 2.85571533 7.48329956 3.25 8.8125 C6.75304479 19.61017717 11.06508844 29.78360856 16 40 C16.45584473 40.9497168 16.91168945 41.89943359 17.38134766 42.87792969 C28.33235919 65.44342704 41.86848113 86.76241228 58 106 C58.80953125 107.010625 59.6190625 108.02125 60.453125 109.0625 C67.29863191 117.47353677 74.92144568 125.13288283 82.5625 132.8125 C83.09321106 133.34847809 83.62392212 133.88445618 84.17071533 134.43667603 C91.10746836 141.4265622 98.22556586 147.93117034 106 154 C106.80123291 154.62962646 107.60246582 155.25925293 108.42797852 155.90795898 C139.61031403 180.16088661 174.28881897 199.03566614 212 211 C212.91539551 211.29358398 213.83079102 211.58716797 214.77392578 211.88964844 C230.31016414 216.81519584 245.92030373 220.37146945 262 223 C262.95310059 223.16516113 263.90620117 223.33032227 264.88818359 223.50048828 C296.38034796 228.79020913 331.56086841 228.43326377 363 223 C364.54276611 222.75056641 364.54276611 222.75056641 366.11669922 222.49609375 C427.56330122 212.44271848 485.75125777 184.73699064 532 143 C532.60263672 142.45907715 533.20527344 141.9181543 533.82617188 141.36083984 C546.9199356 129.55124598 559.17580445 116.94081737 570 103 C570.45052734 102.4220166 570.90105469 101.8440332 571.36523438 101.24853516 C593.73612142 72.41876384 610.80925717 40.76224382 623.10546875 6.4375 C624.02284457 3.93775103 624.99973483 1.46761451 626 -1 C632.61091657 -0.45166463 638.28970271 1.28328479 644.5 3.5625 C645.4178125 3.89185547 646.335625 4.22121094 647.28125 4.56054688 C649.52359298 5.36638888 651.76293768 6.17963729 654 7 C652.0506751 14.78398066 649.56922676 22.18850181 646.5625 29.625 C645.91051636 31.23918823 645.91051636 31.23918823 645.24536133 32.88598633 C631.88503847 65.45961316 614.39917698 95.79518141 592 123 C591.54915039 123.54849609 591.09830078 124.09699219 590.63378906 124.66210938 C577.36262234 140.73067603 563.14257563 156.74905096 547 170 C546.21133545 170.65935547 546.21133545 170.65935547 545.40673828 171.33203125 C529.49636163 184.62718 512.93007655 196.57517136 495 207 C494.28408691 207.41846191 493.56817383 207.83692383 492.83056641 208.26806641 C448.30961995 234.12512187 399.20116261 249.74637416 348 255 C347.16025635 255.0942627 346.3205127 255.18852539 345.45532227 255.28564453 C335.02138743 256.32633854 324.53762329 256.24377674 314.0625 256.25 C312.52991547 256.25101212 312.52991547 256.25101212 310.96636963 256.25204468 C294.13317021 256.23443914 277.67109398 255.51551175 261 253 C259.2672583 252.74259033 259.2672583 252.74259033 257.49951172 252.47998047 C170.73047631 239.18482086 87.32496024 192.60069394 33 123 C32.21496094 122.01 31.42992187 121.02 30.62109375 120 C4.39194144 86.67811242 -17.5354825 47.99855273 -29 7 C-25.11083826 5.62611863 -21.21279477 4.27941647 -17.3125 2.9375 C-16.20970703 2.54755859 -15.10691406 2.15761719 -13.97070312 1.75585938 C-12.90400391 1.39169922 -11.83730469 1.02753906 -10.73828125 0.65234375 C-9.75899658 0.31195068 -8.77971191 -0.02844238 -7.77075195 -0.37915039 C-4.70871693 -1.06526856 -2.93925259 -1.09691234 0 0 Z " fill="#AD4B4B" transform="translate(729,887)"/>
<path d="M0 0 C10.71040745 -0.06986495 21.42075966 -0.12299514 32.13134956 -0.15543652 C37.10604086 -0.17101578 42.08057493 -0.19211066 47.05517578 -0.22631836 C51.86627599 -0.25919037 56.67722607 -0.27691103 61.48843002 -0.28463173 C63.31341791 -0.29012572 65.13839866 -0.30085231 66.96332169 -0.31719017 C85.06734022 -0.47265277 103.15623703 1.00652573 117 14 C125.03878544 22.61170557 127.73594509 31.69021751 127.3828125 43.37890625 C126.51108064 51.624778 122.9303504 59.15419635 117 65 C112.86988324 68.01434264 108.57550592 70.71224704 104 73 C104.68964844 73.21914062 105.37929688 73.43828125 106.08984375 73.6640625 C116.64405234 77.22556499 125.99213064 82.22148719 131.25390625 92.43359375 C134.99106546 101.40538016 135.44932555 110.5011887 132.375 119.75 C127.56186393 131.28811017 120.64601958 138.67488926 109.1875 143.8125 C87.04844214 152.28478689 60.08409176 149.13347659 36.71380615 149.06866455 C32.56311561 149.05827934 28.41241865 149.05383497 24.26171875 149.04882812 C16.17446197 149.03822861 8.08723579 149.02125075 0 149 C0 147.68 0 146.36 0 145 C1.03640625 144.84144531 2.0728125 144.68289063 3.140625 144.51953125 C4.51060404 144.2849458 5.88038607 144.04920777 7.25 143.8125 C8.27287109 143.66071289 8.27287109 143.66071289 9.31640625 143.50585938 C12.9348875 142.85593799 14.80033014 142.19999191 17.421875 139.57421875 C22.09041564 131.95895073 21.14981502 121.56446996 21.14526367 112.88549805 C21.14862228 111.94077637 21.1519809 110.99605469 21.15544128 110.02270508 C21.1648496 106.93569583 21.16688917 103.84874139 21.16796875 100.76171875 C21.17118805 98.5913745 21.17455261 96.42103046 21.17805481 94.25068665 C21.18402057 89.71440122 21.18589731 85.17813477 21.18530273 80.6418457 C21.18520119 74.86247871 21.19885723 69.08323478 21.21607494 63.3038969 C21.22725567 58.82458449 21.22922009 54.34530127 21.22869301 49.86597633 C21.22986384 47.73677967 21.23423447 45.60758201 21.24202538 43.47839928 C22.53398009 24.64073235 22.53398009 24.64073235 17.11027527 7.69779968 C13.57963995 4.85726432 10.2026816 4.76794378 5.8125 4.4375 C4.72582031 4.35371094 3.63914062 4.26992187 2.51953125 4.18359375 C1.68808594 4.12300781 0.85664062 4.06242187 0 4 C0 2.68 0 1.36 0 0 Z M43 10 C43 28.81 43 47.62 43 67 C48.63407356 68.40851839 54.22344971 68.22423358 59.99707031 68.24023438 C62.09741851 68.24987342 64.19675891 68.2808896 66.296875 68.3125 C77.83990422 68.40468864 87.39138956 67.20598055 96 59 C102.23704718 51.95356501 103.51418687 44.83634361 103.38671875 35.55078125 C102.81007638 30.25615589 100.88975221 26.40624026 98 22 C97.443125 21.0925 96.88625 20.185 96.3125 19.25 C87.65182079 10.8233932 76.76790223 7.63118531 64.93164062 7.63867188 C63.90232422 7.65478516 62.87300781 7.67089844 61.8125 7.6875 C60.77158203 7.68427734 59.73066406 7.68105469 58.65820312 7.67773438 C52.76784179 7.71887341 48.87976795 8.3200663 43 10 Z M43 77 C43 97.13 43 117.26 43 138 C59.60782303 141.01960419 79.3904874 143.50114078 94.59375 134.45703125 C102.35770464 128.94916083 106.37684385 122.29625793 108 113 C108.8785885 105.38556634 106.44279742 97.85210362 102.375 91.4375 C95.54729393 83.01666251 85.64957143 78.36966368 75 77 C69.47406548 76.76964692 63.96838976 76.81161032 58.4375 76.875 C50.7959375 76.936875 50.7959375 76.936875 43 77 Z " fill="#AC4B4B" transform="translate(537,1343)"/>
<path d="M0 0 C21.45 0 42.9 0 65 0 C65 1.32 65 2.64 65 4 C64.20335937 4.03738281 63.40671875 4.07476563 62.5859375 4.11328125 C54.34107128 4.51911289 54.34107128 4.51911289 47 8 C42.5173713 13.76337976 43.79611755 24.55378745 43.68359375 31.5 C43.66494263 32.45519531 43.6462915 33.41039062 43.6270752 34.39453125 C43.55927662 37.92960215 43.49881115 41.46481063 43.4375 45 C43.293125 52.92 43.14875 60.84 43 69 C65.44 69 87.88 69 111 69 C110.87625 60.585 110.7525 52.17 110.625 43.5 C110.59100098 40.85806641 110.55700195 38.21613281 110.52197266 35.49414062 C110.48674088 33.38149798 110.45081679 31.26886671 110.4140625 29.15625 C110.40270264 28.0744043 110.39134277 26.99255859 110.37963867 25.87792969 C110.2668019 19.94516246 109.92425752 14.63886177 108 9 C102.54488965 4.47341907 96.9187743 4.25022692 90 4 C90 2.68 90 1.36 90 0 C111.12 0 132.24 0 154 0 C154 1.32 154 2.64 154 4 C153.27554688 4.03738281 152.55109375 4.07476563 151.8046875 4.11328125 C143.9513884 4.58341765 143.9513884 4.58341765 137 8 C133.21283785 13.55758982 133.57543811 19.02317404 133.61181641 25.49389648 C133.60655945 26.64420349 133.60130249 27.7945105 133.59588623 28.97967529 C133.58269745 32.77695347 133.59142136 36.5738114 133.6015625 40.37109375 C133.59954132 43.01375916 133.59662951 45.65642402 133.59286499 48.29908752 C133.58741388 53.83623797 133.59458123 59.37326821 133.60888672 64.91040039 C133.62520404 71.2997672 133.619929 77.68884666 133.6034075 84.07820648 C133.58811884 90.23878674 133.58978101 96.39924025 133.5985527 102.55983162 C133.60055225 105.17487694 133.59810406 107.78992961 133.59111404 110.40496635 C133.58348373 114.06241057 133.59512732 117.71930559 133.61181641 121.37670898 C133.60270737 122.99392601 133.60270737 122.99392601 133.59341431 124.64381409 C133.64304971 130.52436886 134.08297609 134.84007452 137 140 C141.95309365 143.59099289 148.0724535 144.10348496 154 145 C154 146.32 154 147.64 154 149 C132.88 149 111.76 149 90 149 C90 147.68 90 146.36 90 145 C90.80824219 144.89042969 91.61648438 144.78085938 92.44921875 144.66796875 C93.51785156 144.50941406 94.58648438 144.35085938 95.6875 144.1875 C96.74324219 144.03667969 97.79898438 143.88585938 98.88671875 143.73046875 C102.35594097 142.91648562 104.29629882 142.34443595 107 140 C110.41930162 133.16115471 110.46914279 126.01659296 110.51171875 118.52734375 C110.52835571 117.49452271 110.54499268 116.46170166 110.56213379 115.39758301 C110.61951464 111.57775773 110.65208102 107.75759204 110.6875 103.9375 C110.790625 95.378125 110.89375 86.81875 111 78 C88.56 78 66.12 78 43 78 C43.12375 86.0025 43.2475 94.005 43.375 102.25 C43.40899902 104.75110352 43.44299805 107.25220703 43.47802734 109.82910156 C43.5132892 111.84962186 43.54921648 113.8701307 43.5859375 115.890625 C43.59729736 116.90882324 43.60865723 117.92702148 43.62036133 118.97607422 C43.72433 124.22962358 44.05005963 129.4174768 44.71337891 134.63183594 C44.83725983 135.61311462 44.96114075 136.59439331 45.08877563 137.60540771 C45.78709769 140.2327153 45.78709769 140.2327153 48.45370483 141.29815674 C49.29398224 141.52976501 50.13425964 141.76137329 51 142 C51.66902344 142.19722656 52.33804688 142.39445312 53.02734375 142.59765625 C57.00121042 143.56471174 60.95106516 144.39265977 65 145 C65 146.32 65 147.64 65 149 C43.55 149 22.1 149 0 149 C0 147.68 0 146.36 0 145 C1.03640625 144.82984375 2.0728125 144.6596875 3.140625 144.484375 C4.5105647 144.24041314 5.88034859 143.99557521 7.25 143.75 C7.93191406 143.64042969 8.61382813 143.53085938 9.31640625 143.41796875 C13.73381394 142.60310714 16.30790252 141.65165698 19 138 C19.98838257 134.95247644 20.12967941 132.1505353 20.14044189 128.95899963 C20.14615204 127.94261414 20.15186218 126.92622864 20.15774536 125.87904358 C20.15886322 124.76984055 20.15998108 123.66063751 20.16113281 122.51782227 C20.16609772 121.34508759 20.17106262 120.17235291 20.17617798 118.96408081 C20.18827195 115.7512686 20.19574052 112.53849274 20.20018864 109.3256619 C20.20312341 107.31749203 20.20722891 105.30932782 20.21169281 103.30116081 C20.22535759 97.01513622 20.23503009 90.72912462 20.2388947 84.44308621 C20.24337771 77.19167939 20.26094098 69.94046086 20.2898953 62.68911129 C20.31151504 57.07965318 20.32159908 51.47024804 20.32293582 45.86074871 C20.32398334 42.51212405 20.32988006 39.16367663 20.34775543 35.8150959 C20.36477314 32.08044195 20.36294608 28.34624905 20.35644531 24.61157227 C20.3656601 23.50439346 20.37487488 22.39721466 20.3843689 21.25648499 C20.44271432 14.10123062 20.44271432 14.10123062 17 8 C13.30095022 5.14536703 10.30301574 4.56609977 5.6875 4.3125 C4.08455078 4.21388672 4.08455078 4.21388672 2.44921875 4.11328125 C1.64097656 4.07589844 0.83273437 4.03851562 0 4 C0 2.68 0 1.36 0 0 Z " fill="#AC4B4B" transform="translate(847,1343)"/>
<path d="M0 0 C4.58570599 1.65532802 8.09976738 2.1960093 13 2 C13.66 -0.31 14.32 -2.62 15 -5 C16.66611905 -5.042721 18.33382885 -5.04063832 20 -5 C22.03041428 -2.96958572 21.53506592 1.04263531 21.75390625 3.83984375 C21.81907944 4.63596573 21.88425262 5.43208771 21.95140076 6.25233459 C22.08888672 7.94611994 22.2240751 9.64009308 22.35717773 11.33422852 C22.55921942 13.89590573 22.77023468 16.45672377 22.98242188 19.01757812 C23.63223046 27.03031507 24.18981015 34.9537 24 43 C22.35 43 20.7 43 19 43 C18.64808594 42.03320312 18.29617188 41.06640625 17.93359375 40.0703125 C12.61125011 25.85970986 5.51953694 13.7753198 -8.75 7.0625 C-19.8586402 2.2714929 -35.24146395 2.03695707 -46.75 5.625 C-60.86803462 11.32457746 -70.11304053 22.10774807 -76.61328125 35.5859375 C-80.38765252 44.87833325 -82.59069339 54.98088593 -83 65 C-83.03996094 65.67417969 -83.07992188 66.34835937 -83.12109375 67.04296875 C-83.74073895 86.47066813 -78.2609858 105.21634648 -67 121 C-66.51917969 121.69480469 -66.03835938 122.38960937 -65.54296875 123.10546875 C-58.9521649 131.70960173 -46.70407667 138.40482423 -36 140 C-21.88261391 141.00863488 -10.73501145 139.42743648 2 133 C2.0511584 126.66865533 2.08592383 120.33736494 2.10986328 114.00585938 C2.11985464 111.85675057 2.13345231 109.70765513 2.15087891 107.55859375 C3.57236541 89.26379959 3.57236541 89.26379959 -1.87548828 72.75390625 C-4.74605617 70.38408785 -7.08485205 70.18981775 -10.75 69.75 C-11.92046875 69.60046875 -13.0909375 69.4509375 -14.296875 69.296875 C-15.18890625 69.19890625 -16.0809375 69.1009375 -17 69 C-17 67.68 -17 66.36 -17 65 C2.14 65 21.28 65 41 65 C41 66.32 41 67.64 41 69 C39.96939453 69.16435547 39.96939453 69.16435547 38.91796875 69.33203125 C38.01691406 69.49058594 37.11585938 69.64914062 36.1875 69.8125 C34.84751953 70.03873047 34.84751953 70.03873047 33.48046875 70.26953125 C30.67802667 71.09481734 29.70029113 71.64614351 28 74 C26.41948985 78.08458647 25.73940368 81.54472429 25.68115234 85.91357422 C25.66128265 87.05430389 25.64141296 88.19503357 25.62094116 89.37033081 C25.60938995 90.58616852 25.59783875 91.80200623 25.5859375 93.0546875 C25.56657135 94.31137238 25.5472052 95.56805725 25.5272522 96.86282349 C25.47772276 100.18687688 25.43640102 103.51082337 25.39910889 106.83502197 C25.35894066 110.23386431 25.30790713 113.63254204 25.2578125 117.03125 C25.16190085 123.68739382 25.0768137 130.34360986 25 137 C22.49440494 138.12238848 19.98634278 139.23860189 17.4765625 140.3515625 C16.77732666 140.66552979 16.07809082 140.97949707 15.35766602 141.30297852 C-6.65890058 151.03300361 -38.10029492 153.74352376 -61 145 C-70.1559958 141.2162649 -78.60580124 136.66867195 -86 130 C-86.58652344 129.505 -87.17304687 129.01 -87.77734375 128.5 C-102.31368513 115.31510986 -108.70294599 95.94971102 -110.25 76.92578125 C-110.77008703 54.65955543 -101.94206395 33.29791791 -87 17 C-64.71318411 -6.26089001 -29.56146144 -11.47680268 0 0 Z " fill="#AC4B4B" transform="translate(1282,1345)"/>
<path d="M0 0 C1.98 0 3.96 0 6 0 C6.31588577 0.75879204 6.31588577 0.75879204 6.63815308 1.53291321 C24.16295213 43.63639127 24.16295213 43.63639127 41.77685547 85.70263672 C43.30031327 89.33037113 44.81972366 92.95976813 46.33642578 96.59033203 C48.26516307 101.20646742 50.20165504 105.81928009 52.14346313 110.42993164 C52.86939929 112.1570106 53.59277522 113.8851684 54.31332397 115.61450195 C60.48056518 132.89406538 60.48056518 132.89406538 73 145 C75.9767786 145.84073222 78.95081612 146.48502672 82 147 C82 148.65 82 150.3 82 152 C62.53 152 43.06 152 23 152 C23 150.35 23 148.7 23 147 C23.68707031 146.89042969 24.37414063 146.78085938 25.08203125 146.66796875 C25.98308594 146.50941406 26.88414063 146.35085938 27.8125 146.1875 C28.70582031 146.03667969 29.59914063 145.88585938 30.51953125 145.73046875 C33.31220619 144.90805896 34.35602977 144.39075796 36 142 C39.47803169 130.17803653 29.01229186 113.74413736 25 104 C6.19 104 -12.62 104 -32 104 C-41.26231322 122.1782996 -41.26231322 122.1782996 -44 141 C-42.03571176 143.99812416 -39.35713767 144.95555717 -36 146 C-33.33418142 146.43604467 -30.69017469 146.72642291 -28 147 C-28 148.65 -28 150.3 -28 152 C-43.84 152 -59.68 152 -76 152 C-76 150.35 -76 148.7 -76 147 C-75.33613281 146.84144531 -74.67226562 146.68289063 -73.98828125 146.51953125 C-73.10527344 146.28621094 -72.22226563 146.05289062 -71.3125 145.8125 C-70.44238281 145.59207031 -69.57226562 145.37164063 -68.67578125 145.14453125 C-62.87442286 142.66307431 -59.98845457 137.74937639 -57.375 132.2578125 C-57.04145508 131.57341095 -56.70791016 130.8890094 -56.36425781 130.18386841 C-51.2593592 119.56010958 -46.66191608 108.69776487 -42 97.875 C-40.97755957 95.51025604 -39.95493372 93.14559224 -38.93212891 90.78100586 C-32.35694499 75.56055714 -25.87213421 60.303579 -19.46850586 45.01025391 C-15.23168066 34.89485884 -10.9285132 24.81032703 -6.5625 14.75 C-6.28210876 14.10354523 -6.00171753 13.45709045 -5.71282959 12.79104614 C-1.22179953 2.44359906 -1.22179953 2.44359906 0 0 Z M-4 37 C-6.98521758 43.83966693 -9.96707588 50.6807878 -12.94467068 57.52377701 C-14.32743559 60.70130471 -15.71134653 63.87832283 -17.09790039 67.05419922 C-18.69240221 70.70651463 -20.28187705 74.36100662 -21.87109375 78.015625 C-22.36902939 79.15429016 -22.86696503 80.29295532 -23.37998962 81.46612549 C-24.07059227 83.05732208 -24.07059227 83.05732208 -24.77514648 84.68066406 C-25.1815184 85.61332092 -25.58789032 86.54597778 -26.00657654 87.50689697 C-27.14588719 90.2044363 -27.14588719 90.2044363 -28 94 C-11.83 94 4.34 94 21 94 C18.68942109 86.96059201 18.68942109 86.96059201 16.03881836 80.11035156 C15.6851268 79.26627747 15.33143524 78.42220337 14.96702576 77.55255127 C14.59505569 76.6741156 14.22308563 75.79567993 13.83984375 74.890625 C13.44930313 73.96078796 13.05876251 73.03095093 12.65638733 72.07293701 C11.41985981 69.13064165 10.1788256 66.19027387 8.9375 63.25 C7.69361716 60.29502566 6.45065526 57.33966544 5.207901 54.38421631 C4.4374844 52.55299692 3.66623168 50.722129 2.89402771 48.8916626 C1.22837263 44.94079526 -0.42969475 40.99006111 -2 37 C-2.66 37 -3.32 37 -4 37 Z " fill="#AC4B4B" transform="translate(1478,1340)"/>
<path d="M0 0 C1.98 0 3.96 0 6 0 C6.31588577 0.75879204 6.31588577 0.75879204 6.63815308 1.53291321 C24.16295213 43.63639127 24.16295213 43.63639127 41.77685547 85.70263672 C43.30031327 89.33037113 44.81972366 92.95976813 46.33642578 96.59033203 C48.26516307 101.20646742 50.20165504 105.81928009 52.14346313 110.42993164 C52.86939929 112.1570106 53.59277522 113.8851684 54.31332397 115.61450195 C60.48056518 132.89406538 60.48056518 132.89406538 73 145 C75.9767786 145.84073222 78.95081612 146.48502672 82 147 C82 148.65 82 150.3 82 152 C62.53 152 43.06 152 23 152 C23 150.35 23 148.7 23 147 C23.68707031 146.89042969 24.37414063 146.78085938 25.08203125 146.66796875 C25.98308594 146.50941406 26.88414063 146.35085938 27.8125 146.1875 C28.70582031 146.03667969 29.59914063 145.88585938 30.51953125 145.73046875 C33.31220619 144.90805896 34.35602977 144.39075796 36 142 C39.47803169 130.17803653 29.01229186 113.74413736 25 104 C6.19 104 -12.62 104 -32 104 C-41.26231322 122.1782996 -41.26231322 122.1782996 -44 141 C-42.03571176 143.99812416 -39.35713767 144.95555717 -36 146 C-33.33418142 146.43604467 -30.69017469 146.72642291 -28 147 C-28 148.65 -28 150.3 -28 152 C-43.84 152 -59.68 152 -76 152 C-76 150.35 -76 148.7 -76 147 C-75.33613281 146.84144531 -74.67226563 146.68289063 -73.98828125 146.51953125 C-73.10527344 146.28621094 -72.22226562 146.05289062 -71.3125 145.8125 C-70.44238281 145.59207031 -69.57226562 145.37164063 -68.67578125 145.14453125 C-62.87442286 142.66307431 -59.98845457 137.74937639 -57.375 132.2578125 C-57.04145508 131.57341095 -56.70791016 130.8890094 -56.36425781 130.18386841 C-51.2593592 119.56010958 -46.66191608 108.69776487 -42 97.875 C-40.97755957 95.51025604 -39.95493372 93.14559224 -38.93212891 90.78100586 C-32.35694499 75.56055714 -25.87213421 60.303579 -19.46850586 45.01025391 C-15.23168066 34.89485884 -10.9285132 24.81032703 -6.5625 14.75 C-6.28210876 14.10354523 -6.00171753 13.45709045 -5.71282959 12.79104614 C-1.22179953 2.44359906 -1.22179953 2.44359906 0 0 Z M-4 37 C-6.98521758 43.83966693 -9.96707588 50.6807878 -12.94467068 57.52377701 C-14.32743559 60.70130471 -15.71134653 63.87832283 -17.09790039 67.05419922 C-18.69240221 70.70651463 -20.28187705 74.36100662 -21.87109375 78.015625 C-22.36902939 79.15429016 -22.86696503 80.29295532 -23.37998962 81.46612549 C-24.07059227 83.05732208 -24.07059227 83.05732208 -24.77514648 84.68066406 C-25.1815184 85.61332092 -25.58789032 86.54597778 -26.00657654 87.50689697 C-27.14588719 90.2044363 -27.14588719 90.2044363 -28 94 C-11.83 94 4.34 94 21 94 C18.68942109 86.96059201 18.68942109 86.96059201 16.03881836 80.11035156 C15.6851268 79.26627747 15.33143524 78.42220337 14.96702576 77.55255127 C14.59505569 76.6741156 14.22308563 75.79567993 13.83984375 74.890625 C13.44930313 73.96078796 13.05876251 73.03095093 12.65638733 72.07293701 C11.41985981 69.13064165 10.1788256 66.19027387 8.9375 63.25 C7.69361716 60.29502566 6.45065526 57.33966544 5.207901 54.38421631 C4.4374844 52.55299692 3.66623168 50.722129 2.89402771 48.8916626 C1.22837263 44.94079526 -0.42969475 40.99006111 -2 37 C-2.66 37 -3.32 37 -4 37 Z " fill="#AC4B4B" transform="translate(1082,1340)"/>
<path d="M0 0 C1.98 0 3.96 0 6 0 C6.31588577 0.75879204 6.31588577 0.75879204 6.63815308 1.53291321 C24.16295213 43.63639127 24.16295213 43.63639127 41.77685547 85.70263672 C43.30031327 89.33037113 44.81972366 92.95976813 46.33642578 96.59033203 C48.26516307 101.20646742 50.20165504 105.81928009 52.14346313 110.42993164 C52.86939929 112.1570106 53.59277522 113.8851684 54.31332397 115.61450195 C60.48056518 132.89406538 60.48056518 132.89406538 73 145 C75.9767786 145.84073222 78.95081612 146.48502672 82 147 C82 148.65 82 150.3 82 152 C62.53 152 43.06 152 23 152 C23 150.35 23 148.7 23 147 C23.68707031 146.89042969 24.37414062 146.78085938 25.08203125 146.66796875 C25.98308594 146.50941406 26.88414062 146.35085938 27.8125 146.1875 C28.70582031 146.03667969 29.59914063 145.88585938 30.51953125 145.73046875 C33.31220619 144.90805896 34.35602977 144.39075796 36 142 C39.47803169 130.17803653 29.01229186 113.74413736 25 104 C6.19 104 -12.62 104 -32 104 C-41.26231322 122.1782996 -41.26231322 122.1782996 -44 141 C-42.03571176 143.99812416 -39.35713767 144.95555717 -36 146 C-33.33418142 146.43604467 -30.69017469 146.72642291 -28 147 C-28 148.65 -28 150.3 -28 152 C-43.84 152 -59.68 152 -76 152 C-76 150.35 -76 148.7 -76 147 C-75.33613281 146.84144531 -74.67226563 146.68289063 -73.98828125 146.51953125 C-73.10527344 146.28621094 -72.22226562 146.05289062 -71.3125 145.8125 C-70.44238281 145.59207031 -69.57226562 145.37164063 -68.67578125 145.14453125 C-62.87442286 142.66307431 -59.98845457 137.74937639 -57.375 132.2578125 C-57.04145508 131.57341095 -56.70791016 130.8890094 -56.36425781 130.18386841 C-51.2593592 119.56010958 -46.66191608 108.69776487 -42 97.875 C-40.97755957 95.51025604 -39.95493372 93.14559224 -38.93212891 90.78100586 C-32.35694499 75.56055714 -25.87213421 60.303579 -19.46850586 45.01025391 C-15.23168066 34.89485884 -10.9285132 24.81032703 -6.5625 14.75 C-6.28210876 14.10354523 -6.00171753 13.45709045 -5.71282959 12.79104614 C-1.22179953 2.44359906 -1.22179953 2.44359906 0 0 Z M-4 37 C-6.98521758 43.83966693 -9.96707588 50.6807878 -12.94467068 57.52377701 C-14.32743559 60.70130471 -15.71134653 63.87832283 -17.09790039 67.05419922 C-18.69240221 70.70651463 -20.28187705 74.36100662 -21.87109375 78.015625 C-22.36902939 79.15429016 -22.86696503 80.29295532 -23.37998962 81.46612549 C-24.07059227 83.05732208 -24.07059227 83.05732208 -24.77514648 84.68066406 C-25.1815184 85.61332092 -25.58789032 86.54597778 -26.00657654 87.50689697 C-27.14588719 90.2044363 -27.14588719 90.2044363 -28 94 C-11.83 94 4.34 94 21 94 C18.68942109 86.96059201 18.68942109 86.96059201 16.03881836 80.11035156 C15.6851268 79.26627747 15.33143524 78.42220337 14.96702576 77.55255127 C14.59505569 76.6741156 14.22308563 75.79567993 13.83984375 74.890625 C13.44930313 73.96078796 13.05876251 73.03095093 12.65638733 72.07293701 C11.41985981 69.13064165 10.1788256 66.19027387 8.9375 63.25 C7.69361716 60.29502566 6.45065526 57.33966544 5.207901 54.38421631 C4.4374844 52.55299692 3.66623168 50.722129 2.89402771 48.8916626 C1.22837263 44.94079526 -0.42969475 40.99006111 -2 37 C-2.66 37 -3.32 37 -4 37 Z " fill="#AC4B4B" transform="translate(760,1340)"/>
<path d="M0 0 C21.12 0 42.24 0 64 0 C64 1.32 64 2.64 64 4 C62.78763672 4.05607422 62.78763672 4.05607422 61.55078125 4.11328125 C60.48214844 4.17902344 59.41351562 4.24476562 58.3125 4.3125 C57.25675781 4.37050781 56.20101563 4.42851563 55.11328125 4.48828125 C51.50921077 5.08066925 49.75352455 5.57483442 47 8 C43.7541685 14.59893359 43.57424311 21.25202866 43.62768555 28.46728516 C43.62403488 29.57901596 43.62038422 30.69074677 43.61662292 31.83616638 C43.60855954 35.48729027 43.62209124 39.13796451 43.63671875 42.7890625 C43.63723779 45.33775838 43.6367184 47.88645466 43.63520813 50.43515015 C43.63529766 55.76607768 43.64534738 61.09684941 43.66381836 66.42773438 C43.68500338 72.57683849 43.68848952 78.72575578 43.6822564 84.87488902 C43.67654837 90.81173822 43.6823302 96.74853154 43.69342995 102.68537521 C43.69727372 105.20272941 43.69843358 107.7200892 43.6968441 110.23744583 C43.6964726 113.7555734 43.70911705 117.2734188 43.7253418 120.79150391 C43.72286438 121.8275325 43.72038696 122.8635611 43.71783447 123.9309845 C43.75742454 129.31920122 44.00372232 133.96150305 46 139 C51.42172273 143.2681647 57.27355412 144.07556982 64 145 C64 146.32 64 147.64 64 149 C42.88 149 21.76 149 0 149 C0 147.68 0 146.36 0 145 C0.79664063 144.90203125 1.59328125 144.8040625 2.4140625 144.703125 C10.9808444 143.5852911 10.9808444 143.5852911 18 139 C20.61750827 133.38216683 20.28869305 127.66420461 20.2746582 121.59790039 C20.27976913 120.45734695 20.28488007 119.31679352 20.29014587 118.14167786 C20.30402934 114.3769504 20.30308608 110.61240625 20.30078125 106.84765625 C20.30466868 104.22741121 20.30900345 101.60716681 20.31376648 98.98692322 C20.32196965 93.49688088 20.32107785 88.00689003 20.31567383 82.5168457 C20.3096339 76.18202192 20.32194918 69.84742024 20.3432439 63.51263434 C20.36301765 57.40439355 20.36602972 51.29625626 20.36250877 45.18798637 C20.36302194 42.59526485 20.36825886 40.00253977 20.37832069 37.40983772 C20.39066726 33.78354945 20.38390359 30.1577743 20.37231445 26.53149414 C20.37995819 25.4627002 20.38760193 24.39390625 20.39547729 23.29272461 C20.35408765 17.42843937 19.90229664 13.14789575 17 8 C11.98579752 4.23934814 6.05741771 4.31257138 0 4 C0 2.68 0 1.36 0 0 Z " fill="#AC4B4B" transform="translate(1331,1343)"/>
<path d="M0 0 C9.24 0 18.48 0 28 0 C24 2 24 2 20 3 C19.67 11.91 19.34 20.82 19 30 C28.57 30 38.14 30 48 30 C47.67 21.09 47.34 12.18 47 3 C44.36 2.34 41.72 1.68 39 1 C39 0.67 39 0.34 39 0 C48.24 0 57.48 0 67 0 C67 0.33 67 0.66 67 1 C65.865625 1.309375 64.73125 1.61875 63.5625 1.9375 C60.21224901 2.62924531 60.21224901 2.62924531 59 4 C58.90634994 5.7492872 58.88255562 7.50236254 58.88647461 9.25415039 C58.88655014 10.37523697 58.88662567 11.49632355 58.88670349 12.65138245 C58.89186478 13.8711528 58.89702606 15.09092316 58.90234375 16.34765625 C58.90446617 18.2100016 58.90446617 18.2100016 58.90663147 20.10997009 C58.91129409 23.41605491 58.92028503 26.72207146 58.93133545 30.02813721 C58.94155173 33.3996115 58.94612955 36.77109283 58.95117188 40.14257812 C58.96222605 46.76173775 58.97898264 53.38086493 59 60 C61.64 60.99 64.28 61.98 67 63 C67 63.33 67 63.66 67 64 C57.76 64 48.52 64 39 64 C43 62 43 62 47 61 C47.33 51.76 47.66 42.52 48 33 C38.43 33 28.86 33 19 33 C19.33 42.24 19.66 51.48 20 61 C22.64 61.66 25.28 62.32 28 63 C28 63.33 28 63.66 28 64 C18.76 64 9.52 64 0 64 C0 63.67 0 63.34 0 63 C1.134375 62.690625 2.26875 62.38125 3.4375 62.0625 C6.78775099 61.37075469 6.78775099 61.37075469 8 60 C8.09365006 58.2507128 8.11744438 56.49763746 8.11352539 54.74584961 C8.11344986 53.62476303 8.11337433 52.50367645 8.11329651 51.34861755 C8.10813522 50.1288472 8.10297394 48.90907684 8.09765625 47.65234375 C8.09553383 45.7899984 8.09553383 45.7899984 8.09336853 43.89002991 C8.08870591 40.58394509 8.07971497 37.27792854 8.06866455 33.97186279 C8.05844827 30.6003885 8.05387045 27.22890717 8.04882812 23.85742188 C8.03777395 17.23826225 8.02101736 10.61913507 8 4 C5.36 3.01 2.72 2.02 0 1 C0 0.67 0 0.34 0 0 Z " fill="#AC4B4B" transform="translate(1166,1567)"/>
<path d="M0 0 C8.27915713 5.27370968 12.99245135 12.07291711 15.85546875 21.3046875 C17.68292731 30.52580866 16.88800867 40.21530186 12.28125 48.453125 C6.7492218 56.1371013 1.23763068 60.46766477 -7.71875 63.453125 C-18.52101645 64.25183803 -26.78543744 63.3325986 -35.96875 57.328125 C-44.41140065 48.50171751 -47.24470599 39.06786277 -47.02734375 27.0234375 C-46.13996053 16.7567506 -41.65394045 9.51093947 -33.921875 2.921875 C-24.46459388 -4.27570178 -10.71454953 -5.07155345 0 0 Z M-30.09375 8.265625 C-36.68739384 17.19835479 -35.58028686 29.91457023 -34.71875 40.453125 C-33.36304292 47.21700408 -30.78224369 52.74289832 -25.71875 57.453125 C-20.01271934 60.92149658 -15.05445322 60.9925438 -8.71875 59.453125 C-1.83442017 55.8834725 1.33600122 51.18248749 3.64624023 44.00561523 C4.71728646 39.70042942 4.76916636 35.49580834 4.71875 31.078125 C4.71190186 30.15636475 4.70505371 29.23460449 4.69799805 28.28491211 C4.50000889 19.88557435 2.95988062 12.88662231 -1.96875 5.953125 C-6.14433367 2.15713985 -10.19555417 0.82109106 -15.71875 0.015625 C-21.86288581 0.91164481 -26.21894951 3.39849756 -30.09375 8.265625 Z " fill="#AC4B4B" transform="translate(1284.71875,1568.546875)"/>
<path d="M0 0 C8.27915713 5.27370968 12.99245135 12.07291711 15.85546875 21.3046875 C17.68292731 30.52580866 16.88800867 40.21530186 12.28125 48.453125 C6.7492218 56.1371013 1.23763068 60.46766477 -7.71875 63.453125 C-18.52101645 64.25183803 -26.78543744 63.3325986 -35.96875 57.328125 C-44.41140065 48.50171751 -47.24470599 39.06786277 -47.02734375 27.0234375 C-46.13996053 16.7567506 -41.65394045 9.51093947 -33.921875 2.921875 C-24.46459388 -4.27570178 -10.71454953 -5.07155345 0 0 Z M-30.09375 8.265625 C-36.68739384 17.19835479 -35.58028686 29.91457023 -34.71875 40.453125 C-33.36304292 47.21700408 -30.78224369 52.74289832 -25.71875 57.453125 C-20.01271934 60.92149658 -15.05445322 60.9925438 -8.71875 59.453125 C-1.83442017 55.8834725 1.33600122 51.18248749 3.64624023 44.00561523 C4.71728646 39.70042942 4.76916636 35.49580834 4.71875 31.078125 C4.71190186 30.15636475 4.70505371 29.23460449 4.69799805 28.28491211 C4.50000889 19.88557435 2.95988062 12.88662231 -1.96875 5.953125 C-6.14433367 2.15713985 -10.19555417 0.82109106 -15.71875 0.015625 C-21.86288581 0.91164481 -26.21894951 3.39849756 -30.09375 8.265625 Z " fill="#AC4B4B" transform="translate(842.71875,1568.546875)"/>
<path d="M0 0 C4.69560343 -0.07466101 9.39085443 -0.12884101 14.08691406 -0.16479492 C15.68137641 -0.17979745 17.27579808 -0.20020621 18.87011719 -0.22631836 C21.17393077 -0.26308134 23.4771946 -0.27981155 25.78125 -0.29296875 C26.48366821 -0.30845261 27.18608643 -0.32393646 27.90979004 -0.33988953 C33.83962558 -0.3418652 39.17096814 0.93861815 44.05859375 4.5 C49.07276947 9.95451409 49.35060082 13.86430262 49.28125 21.05078125 C48.77760029 26.33210807 46.23312174 28.88718282 42.4375 32.3125 C38.07244971 35.33445789 34.05003758 35.15212222 28.9375 35.125 C28.20466797 35.12886719 27.47183594 35.13273437 26.71679688 35.13671875 C21.25336982 35.12668491 21.25336982 35.12668491 19 34 C19.08071719 38.10498209 19.19357487 42.20846109 19.3125 46.3125 C19.33505859 47.47974609 19.35761719 48.64699219 19.38085938 49.84960938 C19.4340332 51.52700195 19.4340332 51.52700195 19.48828125 53.23828125 C19.51446533 54.26993408 19.54064941 55.30158691 19.56762695 56.36450195 C20.05525289 59.33678994 20.58792164 60.25600364 23 62 C25.60611077 62.72197162 25.60611077 62.72197162 28 63 C28 63.33 28 63.66 28 64 C18.76 64 9.52 64 0 64 C0 63.67 0 63.34 0 63 C1.134375 62.690625 2.26875 62.38125 3.4375 62.0625 C6.78775099 61.37075469 6.78775099 61.37075469 8 60 C8.10933299 58.2618027 8.14907948 56.51917862 8.16113281 54.77758789 C8.17074036 53.6629567 8.1803479 52.5483255 8.19024658 51.3999176 C8.1966214 49.57967323 8.1966214 49.57967323 8.203125 47.72265625 C8.20882507 46.48583603 8.21452515 45.24901581 8.22039795 43.97471619 C8.22986479 41.3527004 8.23638858 38.73067263 8.24023438 36.10864258 C8.24463245 33.41286782 8.25857047 30.71741073 8.28125 28.02172852 C8.31157625 24.15110455 8.3222673 20.28088548 8.328125 16.41015625 C8.3466452 14.59294823 8.3466452 14.59294823 8.36553955 12.73902893 C8.36253845 11.62124557 8.35953735 10.50346222 8.35644531 9.35180664 C8.36009094 8.36443008 8.36373657 7.37705353 8.36749268 6.35975647 C8.1855838 5.19167702 8.1855838 5.19167702 8 4 C5.08235 2.0549 3.37462715 1.54723683 0 1 C0 0.67 0 0.34 0 0 Z M19 4 C19 12.91 19 21.82 19 31 C27.52548897 32.39183479 27.52548897 32.39183479 34 29 C37.59473866 25.03339182 38.30283952 21.38722628 38.21484375 16.05859375 C37.75621258 11.66407328 35.7820929 8.82678392 32.8125 5.6875 C28.37113157 3.02267894 24.01903783 2.32698739 19 4 Z " fill="#AC4B4B" transform="translate(1306,1567)"/>
<path d="M0 0 C0.66 -0.99 1.32 -1.98 2 -3 C2.66 -3 3.32 -3 4 -3 C4 4.26 4 11.52 4 19 C3.34 19 2.68 19 2 19 C1.67128906 17.89591797 1.67128906 17.89591797 1.3359375 16.76953125 C-1.18365292 9.01615747 -3.30361609 5.6492422 -10.4375 1.625 C-14.01793077 0.7517242 -16.4422783 1.04703883 -20 2 C-23.34048682 4.48759657 -24.7706556 5.89914686 -25.625 10 C-24.6011964 14.91425728 -21.09538836 17.25908745 -17.0546875 19.9921875 C-16.00539063 20.61351562 -14.95609375 21.23484375 -13.875 21.875 C-12.72766475 22.56737731 -11.58053296 23.26009186 -10.43359375 23.953125 C-8.24118424 25.26009039 -6.04612707 26.56263137 -3.84765625 27.859375 C6.78702712 34.31155874 6.78702712 34.31155874 8.55078125 41.12890625 C9.45630887 46.53463174 8.79156986 50.16127891 6 55 C2.03491991 59.71523037 -2.09084444 62.64841959 -8.296875 63.3984375 C-15.70390327 63.34816355 -22.06732425 62.68361642 -29 60 C-29.66 60.99 -30.32 61.98 -31 63 C-31.99 63 -32.98 63 -34 63 C-34 55.74 -34 48.48 -34 41 C-33.01 41 -32.02 41 -31 41 C-30.35366725 42.77065111 -29.7079517 44.54152753 -29.0625 46.3125 C-28.70285156 47.29863281 -28.34320312 48.28476563 -27.97265625 49.30078125 C-27.29114035 51.1920563 -26.6357189 53.09284329 -26 55 C-23.70465742 56.13545562 -23.70465742 56.13545562 -21 57 C-20.2575 57.391875 -19.515 57.78375 -18.75 58.1875 C-14.66179624 59.39537838 -11.09702806 59.12612706 -7 58 C-4.00171744 55.98074848 -2.40073408 54.63936671 -1.52734375 51.06640625 C-1.24599731 47.25019431 -1.43598074 45.70071639 -3.91796875 42.6171875 C-8.4578166 38.38150622 -14.22174125 35.63883187 -19.60742188 32.63671875 C-25.67415603 29.13755373 -30.8011795 25.39764101 -34 19 C-34.5238576 13.74424835 -34.66505372 9.35473905 -32.3125 4.5625 C-23.33855749 -5.38159845 -11.84630418 -4.8188356 0 0 Z " fill="#AC4B4B" transform="translate(1152,1569)"/>
<path d="M0 0 C16.5 0 33 0 50 0 C51.38226016 2.76452033 51.09525387 5.0461363 51.0625 8.125 C51.05347656 9.22070312 51.04445313 10.31640625 51.03515625 11.4453125 C51.02355469 12.28835938 51.01195312 13.13140625 51 14 C50.01 14 49.02 14 48 14 C47.82984375 13.44570312 47.6596875 12.89140625 47.484375 12.3203125 C47.24203125 11.59585937 46.9996875 10.87140625 46.75 10.125 C46.40195313 9.04605469 46.40195313 9.04605469 46.046875 7.9453125 C44.69884797 5.4403966 43.61776856 5.05393639 41 4 C38.58820096 3.63820497 38.58820096 3.63820497 36.015625 3.5859375 C35.17290039 3.55032715 34.33017578 3.5147168 33.46191406 3.47802734 C31.8720166 3.42702881 31.8720166 3.42702881 30.25 3.375 C26.8675 3.25125 23.485 3.1275 20 3 C20 11.58 20 20.16 20 29 C23.8053125 28.7834375 23.8053125 28.7834375 27.6875 28.5625 C28.47729248 28.51939697 29.26708496 28.47629395 30.08081055 28.43188477 C33.80343045 28.20925242 37.35644339 27.85519376 41 27 C41.66 24.69 42.32 22.38 43 20 C43.66 20 44.32 20 45 20 C45 26.93 45 33.86 45 41 C44.01 41 43.02 41 42 41 C41.7525 40.05125 41.505 39.1025 41.25 38.125 C40.33060127 35.03288598 40.33060127 35.03288598 38.4375 33.84375 C34.92995997 32.62960153 31.42392138 32.53135285 27.75 32.375 C25.1925 32.25125 22.635 32.1275 20 32 C20 41.24 20 50.48 20 60 C23.196875 60.04125 26.39375 60.0825 29.6875 60.125 C30.68612061 60.14320801 31.68474121 60.16141602 32.71362305 60.18017578 C40.35636696 60.25041953 40.35636696 60.25041953 46.73046875 56.37890625 C47.21128906 55.77949219 47.69210937 55.18007812 48.1875 54.5625 C48.67605469 53.96566406 49.16460938 53.36882812 49.66796875 52.75390625 C50.83835271 51.21284351 51.92659091 49.61011363 53 48 C53.99 48.33 54.98 48.66 56 49 C54.35 53.95 52.7 58.9 51 64 C34.17 64 17.34 64 0 64 C0 63.67 0 63.34 0 63 C1.11375 62.7525 2.2275 62.505 3.375 62.25 C6.97796338 61.41103562 6.97796338 61.41103562 8.21138 59.22642517 C9.09991879 56.71791012 9.24739622 54.78629276 9.24291992 52.12719727 C9.24599655 51.162621 9.24907318 50.19804474 9.25224304 49.20423889 C9.24505753 48.16875412 9.23787201 47.13326935 9.23046875 46.06640625 C9.23001053 44.99631821 9.22955231 43.92623016 9.2290802 42.82371521 C9.22606063 40.56174612 9.21818315 38.29977906 9.20581055 36.0378418 C9.18758793 32.57918916 9.18530072 29.12080495 9.18554688 25.66210938 C9.18063008 23.46353936 9.17480105 21.26497115 9.16796875 19.06640625 C9.16685593 18.03294571 9.1657431 16.99948517 9.16459656 15.93470764 C9.15821671 14.96697922 9.15183685 13.99925079 9.14526367 13.00219727 C9.14145187 12.15488541 9.13764008 11.30757355 9.13371277 10.43458557 C8.99322826 7.87670294 8.56037165 5.49680901 8 3 C5.36 2.34 2.72 1.68 0 1 C0 0.67 0 0.34 0 0 Z " fill="#AC4B4B" transform="translate(1030,1567)"/>
<path d="M0 0 C16.5 0 33 0 50 0 C51.38226016 2.76452033 51.09525387 5.0461363 51.0625 8.125 C51.05347656 9.22070312 51.04445313 10.31640625 51.03515625 11.4453125 C51.02355469 12.28835938 51.01195312 13.13140625 51 14 C50.01 14 49.02 14 48 14 C47.82984375 13.44570312 47.6596875 12.89140625 47.484375 12.3203125 C47.24203125 11.59585937 46.9996875 10.87140625 46.75 10.125 C46.40195312 9.04605469 46.40195312 9.04605469 46.046875 7.9453125 C44.69884797 5.4403966 43.61776856 5.05393639 41 4 C38.58820096 3.63820497 38.58820096 3.63820497 36.015625 3.5859375 C35.17290039 3.55032715 34.33017578 3.5147168 33.46191406 3.47802734 C31.8720166 3.42702881 31.8720166 3.42702881 30.25 3.375 C26.8675 3.25125 23.485 3.1275 20 3 C20 11.58 20 20.16 20 29 C23.8053125 28.7834375 23.8053125 28.7834375 27.6875 28.5625 C28.47729248 28.51939697 29.26708496 28.47629395 30.08081055 28.43188477 C33.80343045 28.20925242 37.35644339 27.85519376 41 27 C41.66 24.69 42.32 22.38 43 20 C43.66 20 44.32 20 45 20 C45 26.93 45 33.86 45 41 C44.01 41 43.02 41 42 41 C41.7525 40.05125 41.505 39.1025 41.25 38.125 C40.33060127 35.03288598 40.33060127 35.03288598 38.4375 33.84375 C34.92995997 32.62960153 31.42392138 32.53135285 27.75 32.375 C25.1925 32.25125 22.635 32.1275 20 32 C20 41.24 20 50.48 20 60 C23.196875 60.04125 26.39375 60.0825 29.6875 60.125 C30.68612061 60.14320801 31.68474121 60.16141602 32.71362305 60.18017578 C40.35636696 60.25041953 40.35636696 60.25041953 46.73046875 56.37890625 C47.21128906 55.77949219 47.69210937 55.18007812 48.1875 54.5625 C48.67605469 53.96566406 49.16460938 53.36882812 49.66796875 52.75390625 C50.83835271 51.21284351 51.92659091 49.61011363 53 48 C53.99 48.33 54.98 48.66 56 49 C54.35 53.95 52.7 58.9 51 64 C34.17 64 17.34 64 0 64 C0 63.67 0 63.34 0 63 C1.11375 62.7525 2.2275 62.505 3.375 62.25 C6.97796338 61.41103562 6.97796338 61.41103562 8.21138 59.22642517 C9.09991879 56.71791012 9.24739622 54.78629276 9.24291992 52.12719727 C9.24599655 51.162621 9.24907318 50.19804474 9.25224304 49.20423889 C9.24505753 48.16875412 9.23787201 47.13326935 9.23046875 46.06640625 C9.23001053 44.99631821 9.22955231 43.92623016 9.2290802 42.82371521 C9.22606063 40.56174612 9.21818315 38.29977906 9.20581055 36.0378418 C9.18758793 32.57918916 9.18530072 29.12080495 9.18554688 25.66210938 C9.18063008 23.46353936 9.17480105 21.26497115 9.16796875 19.06640625 C9.16685593 18.03294571 9.1657431 16.99948517 9.16459656 15.93470764 C9.15821671 14.96697922 9.15183685 13.99925079 9.14526367 13.00219727 C9.14145187 12.15488541 9.13764008 11.30757355 9.13371277 10.43458557 C8.99322826 7.87670294 8.56037165 5.49680901 8 3 C5.36 2.34 2.72 1.68 0 1 C0 0.67 0 0.34 0 0 Z " fill="#AC4B4B" transform="translate(971,1567)"/>
<path d="M0 0 C0.45375 -0.495 0.9075 -0.99 1.375 -1.5 C3 -3 3 -3 5 -3 C5.7795458 -0.19252545 6.1710149 2.42029808 6.31640625 5.328125 C6.35830078 6.12734375 6.40019531 6.9265625 6.44335938 7.75 C6.48267578 8.575 6.52199219 9.4 6.5625 10.25 C6.60568359 11.09046875 6.64886719 11.9309375 6.69335938 12.796875 C6.79908543 14.86440671 6.90001295 16.93218281 7 19 C6.01 19 5.02 19 4 19 C3.62488281 18.18015625 3.24976563 17.3603125 2.86328125 16.515625 C2.35152344 15.43796875 1.83976563 14.3603125 1.3125 13.25 C0.81363281 12.18265625 0.31476562 11.1153125 -0.19921875 10.015625 C-2.64556929 5.9189165 -5.4376208 3.7630224 -9.6875 1.6875 C-16.16468282 0.34317904 -22.84050818 0.97695815 -28.46875 4.640625 C-33.7942179 9.3683363 -36.51781183 16.20422577 -37.22094727 23.19750977 C-37.33944094 25.59430217 -37.37976413 27.97530897 -37.375 30.375 C-37.37258301 31.63691162 -37.37258301 31.63691162 -37.37011719 32.92431641 C-37.24941412 39.01508798 -36.50431185 43.8764544 -33 49 C-32.38125 49.94875 -31.7625 50.8975 -31.125 51.875 C-26.36316955 56.63683045 -21.264717 57.64320231 -14.7421875 58.05859375 C-7.3257336 57.90012251 -2.03387624 54.22434723 3 49 C3.66 48.01 4.32 47.02 5 46 C5.99 46 6.98 46 8 46 C6.11364682 52.22496549 1.93530201 57.08664935 -3.625 60.375 C-11.3932519 64.11526944 -21.40223936 64.31061815 -29.76953125 62.3515625 C-38.49199435 58.77703296 -44.16703111 52.77605169 -48.08984375 44.33203125 C-51.69664622 35.09056741 -51.07423813 24.52981244 -47.25390625 15.46484375 C-42.95323249 7.01087135 -37.01998847 1.43626605 -28.171875 -2.14453125 C-18.85881741 -4.65630417 -8.88540049 -3.51234655 0 0 Z " fill="#AC4B4B" transform="translate(781,1569)"/>
<path d="M0 0 C15.84 0 31.68 0 48 0 C48.8372965 5.02377899 49.0861953 9.00067249 49 14 C48.01 14 47.02 14 46 14 C45.65388672 13.16855469 45.65388672 13.16855469 45.30078125 12.3203125 C44.81158203 11.23363281 44.81158203 11.23363281 44.3125 10.125 C43.99925781 9.40570312 43.68601562 8.68640625 43.36328125 7.9453125 C41.48069052 5.2589796 40.17847808 4.84533991 37 4 C33.89853481 3.64006347 30.80645183 3.49358705 27.6875 3.375 C24.820625 3.25125 21.95375 3.1275 19 3 C19 11.91 19 20.82 19 30 C30.7995099 29.91465912 30.7995099 29.91465912 36 27 C37.29231642 23.95800528 37.29231642 23.95800528 38 21 C38.99 21 39.98 21 41 21 C41 27.93 41 34.86 41 42 C40.01 42 39.02 42 38 42 C37.54625 40.865625 37.0925 39.73125 36.625 38.5625 C35.42904194 34.95278308 35.42904194 34.95278308 33 34 C28.34005103 33.54741503 23.67317512 33.29738387 19 33 C19.33 42.24 19.66 51.48 20 61 C22.64 61.66 25.28 62.32 28 63 C28 63.33 28 63.66 28 64 C18.76 64 9.52 64 0 64 C0 63.67 0 63.34 0 63 C1.134375 62.71125 2.26875 62.4225 3.4375 62.125 C4.613125 61.75375 5.78875 61.3825 7 61 C8.28566729 58.42866541 8.12009778 56.602829 8.11352539 53.72412109 C8.11344986 52.6231308 8.11337433 51.5221405 8.11329651 50.38778687 C8.10813522 49.19505157 8.10297394 48.00231628 8.09765625 46.7734375 C8.0962413 45.55548492 8.09482635 44.33753235 8.09336853 43.08267212 C8.08775639 39.1800901 8.07520179 35.27756477 8.0625 31.375 C8.05748657 28.73437583 8.05292339 26.09375076 8.04882812 23.453125 C8.03778301 16.96873055 8.02103302 10.48436932 8 4 C5.36 3.01 2.72 2.02 0 1 C0 0.67 0 0.34 0 0 Z " fill="#AC4B4B" transform="translate(917,1567)"/>
<path d="M0 0 C15.84 0 31.68 0 48 0 C48.8372965 5.02377899 49.0861953 9.00067249 49 14 C48.01 14 47.02 14 46 14 C45.65388672 13.16855469 45.65388672 13.16855469 45.30078125 12.3203125 C44.81158203 11.23363281 44.81158203 11.23363281 44.3125 10.125 C43.99925781 9.40570312 43.68601562 8.68640625 43.36328125 7.9453125 C41.48069052 5.2589796 40.17847808 4.84533991 37 4 C33.89853481 3.64006347 30.80645183 3.49358705 27.6875 3.375 C24.820625 3.25125 21.95375 3.1275 19 3 C19 11.91 19 20.82 19 30 C30.7995099 29.91465912 30.7995099 29.91465912 36 27 C37.29231642 23.95800528 37.29231642 23.95800528 38 21 C38.99 21 39.98 21 41 21 C41 27.93 41 34.86 41 42 C40.01 42 39.02 42 38 42 C37.54625 40.865625 37.0925 39.73125 36.625 38.5625 C35.42904194 34.95278308 35.42904194 34.95278308 33 34 C28.34005103 33.54741503 23.67317512 33.29738387 19 33 C19.33 42.24 19.66 51.48 20 61 C22.64 61.66 25.28 62.32 28 63 C28 63.33 28 63.66 28 64 C18.76 64 9.52 64 0 64 C0 63.67 0 63.34 0 63 C1.134375 62.71125 2.26875 62.4225 3.4375 62.125 C4.613125 61.75375 5.78875 61.3825 7 61 C8.28566729 58.42866541 8.12009778 56.602829 8.11352539 53.72412109 C8.11344986 52.6231308 8.11337433 51.5221405 8.11329651 50.38778687 C8.10813522 49.19505157 8.10297394 48.00231628 8.09765625 46.7734375 C8.0962413 45.55548492 8.09482635 44.33753235 8.09336853 43.08267212 C8.08775639 39.1800901 8.07520179 35.27756477 8.0625 31.375 C8.05748657 28.73437583 8.05292339 26.09375076 8.04882812 23.453125 C8.03778301 16.96873055 8.02103302 10.48436932 8 4 C5.36 3.01 2.72 2.02 0 1 C0 0.67 0 0.34 0 0 Z " fill="#AC4B4B" transform="translate(863,1567)"/>
<path d="M0 0 C5.78677546 3.82145549 8.61995129 7.86184111 10.25 14.5 C11.89596027 23.85965541 11.26901767 33.87693109 6 42 C3.76050195 44.90178863 1.49556186 46.70405843 -2.2109375 47.4375 C-6.01677147 47.63980347 -8.42430876 47.30703533 -11.8125 45.5 C-19.18148979 37.07829738 -19.67708857 27.80965969 -19 17 C-17.76604018 11.02593247 -15.59955624 5.15391803 -10.8125 1.1875 C-7.13509472 -0.36518223 -3.88769514 -0.81565369 0 0 Z M-7.1875 3 C-12.66063823 9.03932495 -12.30551926 19.28102656 -12.21875 27.046875 C-11.58932786 36.33273436 -11.58932786 36.33273436 -6.890625 43.84375 C-5.95476562 44.41609375 -5.95476562 44.41609375 -5 45 C-1.15521125 43.54163185 0.1822915 41.63541701 2 38 C3.4808389 33.17139836 3.22365167 28.25618233 3.25 23.25 C3.270625 22.28578125 3.29125 21.3215625 3.3125 20.328125 C3.34595363 14.17265799 2.68084585 9.57283231 0 4 C-2.89016748 1.99911482 -3.96282353 1.52586219 -7.1875 3 Z " fill="#AC4B4B" transform="translate(1384,781)"/>
<path d="M0 0 C11.55 0 23.1 0 35 0 C35.495 4.95 35.495 4.95 36 10 C35.01 10 34.02 10 33 10 C32.54625 9.030625 32.0925 8.06125 31.625 7.0625 C30.34213779 3.92920418 30.34213779 3.92920418 28 3 C23.34005103 2.54741503 18.67317512 2.29738387 14 2 C14 8.27 14 14.54 14 21 C21.43120209 20.80602487 21.43120209 20.80602487 28 18 C28.33 17.01 28.66 16.02 29 15 C29.66 15 30.32 15 31 15 C31 19.62 31 24.24 31 29 C30.34 29 29.68 29 29 29 C28.71125 28.360625 28.4225 27.72125 28.125 27.0625 C27.17176549 24.84793921 27.17176549 24.84793921 25 24 C23.12943209 23.7724985 21.25314042 23.59037189 19.375 23.4375 C17.60125 23.293125 15.8275 23.14875 14 23 C14.33 29.27 14.66 35.54 15 42 C18.0628125 42.0928125 18.0628125 42.0928125 21.1875 42.1875 C22.91033203 42.23970703 22.91033203 42.23970703 24.66796875 42.29296875 C28.32286865 41.97161178 30.10357848 41.20481638 33 39 C34.00568242 37.33675599 35.00664799 35.67063747 36 34 C36.99 34 37.98 34 39 34 C38.01 37.63 37.02 41.26 36 45 C24.12 45 12.24 45 0 45 C3 43 3 43 5 42 C5 29.13 5 16.26 5 3 C2.525 2.01 2.525 2.01 0 1 C0 0.67 0 0.34 0 0 Z " fill="#AC4B4B" transform="translate(620,782)"/>
<path d="M0 0 C0.78375 0.33 1.5675 0.66 2.375 1 C2.705 0.34 3.035 -0.32 3.375 -1 C4.035 -1 4.695 -1 5.375 -1 C5.375 3.95 5.375 8.9 5.375 14 C4.715 14 4.055 14 3.375 14 C3.15585937 13.38511719 2.93671875 12.77023437 2.7109375 12.13671875 C1.11072704 8.05813355 0.08720844 5.52641493 -3.5 2.875 C-7.03882583 1.88412877 -9.11590172 1.96322096 -12.625 3 C-14.85288215 4.8726733 -14.85288215 4.8726733 -15.25 7.75 C-14.4120624 12.10727553 -12.6147336 13.06994134 -9.0546875 15.49609375 C-6.5201192 17.06491818 -3.95329698 18.56678172 -1.375 20.0625 C3.09745896 22.68002206 6.0298641 25.3097282 8.375 30 C8.7518901 34.99379386 8.56968322 38.05989069 5.375 42 C0.84580273 46.18950747 -3.00320866 46.54198399 -8.921875 46.33984375 C-12.64039404 45.87234208 -15.32968041 44.75750378 -18.625 43 C-18.955 43.99 -19.285 44.98 -19.625 46 C-20.285 46 -20.945 46 -21.625 46 C-21.625 41.05 -21.625 36.1 -21.625 31 C-20.635 31.33 -19.645 31.66 -18.625 32 C-18.150625 33.11375 -17.67625 34.2275 -17.1875 35.375 C-15.34996374 39.6384516 -15.34996374 39.6384516 -11.625 42 C-7.77737233 42.97939613 -5.46415214 43.28566881 -1.6875 42 C0.71444228 40.06840404 0.71444228 40.06840404 0.9375 36.5625 C0.27427917 32.36210143 -0.46296566 31.69764316 -3.625 29 C-5.74325112 27.66358103 -7.89192757 26.37464748 -10.0625 25.125 C-19.01343207 19.73951217 -19.01343207 19.73951217 -21.625 15 C-22.51382009 10.37484358 -22.30016645 7.13331511 -19.875 3.0625 C-14.07263027 -2.25633892 -7.32329209 -2.02021851 0 0 Z " fill="#AC4B4B" transform="translate(685.625,782)"/>
<path d="M0 0 C3.85544798 1.99657127 5.59805092 3.39707638 8 7 C9.26411507 14.30512651 7.86619546 19.62705239 3.78515625 25.71484375 C1.61827327 28.48864363 -0.69101533 30.95963607 -3.2890625 33.33203125 C-5.40847933 35.39822071 -7.18486451 37.6656882 -9 40 C-6.93816367 40.08150744 -4.87538651 40.1394194 -2.8125 40.1875 C-1.08966797 40.23970703 -1.08966797 40.23970703 0.66796875 40.29296875 C4.29569207 39.97400128 6.02769557 39.01145291 9 37 C9.66 37 10.32 37 11 37 C10.41321669 40.52069985 9.64350079 42.71299843 8 46 C-0.91 46 -9.82 46 -19 46 C-16.93425203 41.86850406 -14.47732765 39.40825504 -11.1875 36.3125 C-4.38517606 29.67990581 0.17936675 23.75504826 1.15234375 14.04296875 C0.96976004 11.59447436 0.27516001 10.08499847 -1 8 C-3.49869682 6.12597739 -4.8530634 5.99693882 -8 6.0625 C-11.72380378 7.22618868 -12.71804512 8.93116413 -15 12 C-15.99 12 -16.98 12 -18 12 C-17.05678655 7.18961138 -16.05229498 3.95169874 -11.90625 0.8828125 C-8.03597298 -0.90956989 -4.13115883 -0.73770693 0 0 Z " fill="#AC4B4B" transform="translate(1349,781)"/>
<path d="M0 0 C5.61 0 11.22 0 17 0 C16.34 1.98 15.68 3.96 15 6 C10.38 6 5.76 6 1 6 C0.67 7.65 0.34 9.3 0 11 C0.81984375 11.36351562 1.6396875 11.72703125 2.484375 12.1015625 C13.25993884 17.12844037 13.25993884 17.12844037 16 23 C17.54033038 27.62099115 17.5385555 31.44769296 15.9375 36.0625 C12.92475895 40.63020417 9.24110803 44.25296399 4 46 C2.33631742 46.11766176 0.66779197 46.17509083 -1 46.1875 C-1.86625 46.20167969 -2.7325 46.21585938 -3.625 46.23046875 C-6 46 -6 46 -9 44 C-8.67 42.35 -8.34 40.7 -8 39 C-4.75113371 39.46412376 -1.98866764 40.00462545 1.0625 41.25 C4.01214207 42.31382381 4.01214207 42.31382381 6.75 40.875 C9.13369021 38.88859149 10.17357024 37.97514713 11 35 C10.91106779 30.19766079 9.94963998 26.88721467 6.66015625 23.28125 C4.07880692 21.28905569 1.30342713 20.48411548 -1.81640625 19.640625 C-4 19 -4 19 -8 17 C-5.36 11.39 -2.72 5.78 0 0 Z " fill="#AC4B4B" transform="translate(1442,782)"/>
<path d="M0 0 C12.21 0 24.42 0 37 0 C37.495 4.95 37.495 4.95 38 10 C37.01 10 36.02 10 35 10 C34.505 7.03 34.505 7.03 34 4 C28.06 3.01 28.06 3.01 22 2 C22.495 22.295 22.495 22.295 23 43 C24.65 43.33 26.3 43.66 28 44 C28 44.33 28 44.66 28 45 C21.73 45 15.46 45 9 45 C12 43 12 43 14 43 C14.33 29.47 14.66 15.94 15 2 C5.73960026 2.89059961 5.73960026 2.89059961 3 6 C2.3574765 8.06874034 2.3574765 8.06874034 2 10 C1.34 10 0.68 10 0 10 C0 6.7 0 3.4 0 0 Z " fill="#AC4B4B" transform="translate(699,782)"/>
<path d="M0 0 C0.33 14.19 0.66 28.38 1 43 C2.65 43.66 4.3 44.32 6 45 C6 45.33 6 45.66 6 46 C0.06 46 -5.88 46 -12 46 C-9 44 -9 44 -7 43 C-7 31.12 -7 19.24 -7 7 C-8.65 6.67 -10.3 6.34 -12 6 C-12 5.34 -12 4.68 -12 4 C-10.56570999 3.32645501 -9.12742943 2.66140299 -7.6875 2 C-6.88699219 1.62875 -6.08648438 1.2575 -5.26171875 0.875 C-3 0 -3 0 0 0 Z " fill="#AC4B4B" transform="translate(1416,781)"/>
<path d="M0 0 C0.78375 0.04125 1.5675 0.0825 2.375 0.125 C2.75718767 1.78114657 3.08895102 3.44957024 3.375 5.125 C2.375 6.125 2.375 6.125 -0.1875 6.1875 C-1.3940625 6.1565625 -1.3940625 6.1565625 -2.625 6.125 C-3.285 4.805 -3.945 3.485 -4.625 2.125 C-2.625 0.125 -2.625 0.125 0 0 Z " fill="#AC4B4B" transform="translate(741.625,821.875)"/>
</svg>
